<?xml version="1.0" standalone="no"?>
<!DOCTYPE svg PUBLIC "-//W3C//DTD SVG 20010904//EN"
 "http://www.w3.org/TR/2001/REC-SVG-20010904/DTD/svg10.dtd">
<svg version="1.0" xmlns="http://www.w3.org/2000/svg"
 width="512.000000pt" height="512.000000pt" viewBox="0 0 512.000000 512.000000"
 preserveAspectRatio="xMidYMid meet">

<g transform="translate(0.000000,512.000000) scale(0.100000,-0.100000)"
fill="#000000" stroke="none">
<path d="M2523 5077 c-30 -17 -2462 -2330 -2490 -2369 -45 -60 -37 -72 174
-248 120 -100 162 -130 184 -130 23 0 47 17 109 76 l80 77 0 -265 c0 -264 0
-265 23 -286 33 -31 80 -29 106 4 20 26 21 38 21 358 l0 331 912 870 c501 479
914 870 918 870 4 0 417 -391 918 -870 l912 -870 0 -917 0 -918 -838 0 -839 0
-21 -23 c-21 -22 -22 -32 -24 -302 l-3 -280 -105 0 -105 0 -3 1064 -2 1065
-22 23 -21 23 -656 0 c-707 -1 -680 1 -701 -54 -7 -18 -10 -375 -10 -1077 l0
-1049 -40 0 -40 0 0 280 0 281 -25 24 c-22 23 -32 25 -115 25 l-90 0 0 429 c0
418 0 429 -21 455 -27 34 -77 36 -107 3 -22 -23 -22 -26 -22 -455 l0 -432
-265 0 -266 0 -24 -25 -25 -24 0 -329 c0 -310 1 -331 19 -353 l19 -24 2522 0
2522 0 19 24 c18 22 19 43 19 353 l0 329 -25 24 -24 25 -266 0 -265 0 0 846 0
847 80 -77 c62 -59 86 -76 109 -76 22 0 64 30 184 130 163 136 197 171 197
200 0 31 -42 75 -297 317 l-252 238 -1 377 0 377 -26 20 c-34 27 -76 27 -100
0 -18 -19 -19 -44 -24 -321 l-5 -301 -397 378 -398 378 0 189 0 188 400 0 400
0 0 -118 c0 -128 9 -154 55 -166 29 -7 79 15 89 39 3 9 6 92 6 184 0 162 -1
168 -23 189 -23 22 -24 22 -528 22 l-506 0 -21 -23 c-20 -21 -22 -35 -24 -190
l-3 -167 -410 391 c-225 215 -423 399 -440 410 -35 22 -51 23 -82 6z m-223
-3882 l0 -1005 -550 0 -550 0 0 1005 0 1005 550 0 550 0 0 -1005z m-1500 -780
l0 -225 -325 0 -325 0 0 225 0 225 325 0 325 0 0 -225z m4170 0 l0 -225 -1075
0 -1075 0 0 225 0 225 1075 0 1075 0 0 -225z"/>
<path d="M1892 1257 c-27 -29 -28 -77 -3 -108 18 -22 28 -24 126 -27 122 -4
147 0 175 30 26 28 26 68 -1 102 -20 26 -22 26 -148 26 -120 0 -129 -1 -149
-23z"/>
<path d="M2440 3662 c-73 -25 -107 -43 -159 -88 -183 -158 -192 -444 -19 -617
167 -167 429 -167 596 0 179 179 163 468 -35 629 -102 83 -264 115 -383 76z"/>
<path d="M2692 2337 l-22 -23 0 -661 0 -662 26 -20 c26 -21 33 -21 766 -21
l739 0 24 25 25 24 0 656 0 656 -25 24 -24 25 -744 0 -744 0 -21 -23z m1398
-247 l0 -110 -635 0 -635 0 0 110 0 110 635 0 635 0 0 -110z m5 -625 l0 -360
-637 -3 -638 -2 0 365 0 365 638 -2 637 -3 0 -360z"/>
</g>
</svg>
